<svg width="1842" height="215" viewBox="0 0 1842 215" fill="none" xmlns="http://www.w3.org/2000/svg">
<path opacity="0.4" d="M268.718 0H273.136L273.158 214.592H268.718V0Z" fill="white"/>
<path d="M56.9199 135.565C57.0226 89.7475 96.528 62.2957 139.698 67.6719C144.75 68.3035 150.732 69.3765 157.641 70.8908C162.138 71.8838 166.464 72.1464 170.962 72.4774C171.259 72.5002 171.43 72.66 171.475 72.9568L175.585 103.388C175.722 104.4 175.28 104.929 174.261 104.974L172.491 105.066C171.578 105.111 171 104.693 170.756 103.81C165.247 84.0022 151.835 73.714 130.52 72.9454C107.383 72.1121 90.6268 86.1177 82.3399 106.492C78.3068 116.415 76.6402 126.487 77.3403 136.707C77.3535 136.89 77.405 137.068 77.4914 137.23C77.5778 137.392 77.6972 137.534 77.8417 137.646C77.9862 137.758 78.1525 137.838 78.3297 137.881C78.5069 137.923 78.691 137.928 78.8699 137.894C97.7722 134.207 109.335 123.352 116.754 106.424C116.829 106.251 116.953 106.102 117.111 105.997C117.269 105.892 117.454 105.834 117.645 105.83L119.939 105.819C120.122 105.817 120.303 105.856 120.469 105.933C120.635 106.01 120.781 106.124 120.897 106.265C121.014 106.406 121.096 106.572 121.14 106.75C121.184 106.927 121.187 107.112 121.149 107.291L115.054 137.471C115 137.753 114.833 137.916 114.551 137.962L78.3562 143.589C77.854 143.673 77.6333 143.966 77.6942 144.468C79.1324 155.784 83.527 166.221 90.8779 175.778C101.539 189.643 116.089 195.693 134.527 193.927C142.38 193.174 153.338 191.69 156.408 184.248C157.108 182.543 157.451 179.34 157.436 174.637C157.413 168.374 157.401 162.123 157.401 155.883C157.413 150.929 155.507 148.11 150.792 147.002C143.708 145.336 136.794 144.293 130.052 143.875C128.698 143.791 128.009 143.072 127.986 141.717L127.975 140.393C127.952 139.024 128.626 138.35 129.995 138.373C144.914 138.613 159.844 139.503 174.888 138.921C181.44 138.67 187.985 138.476 194.521 138.339C195.701 138.316 196.317 138.894 196.37 140.074L196.427 141.432C196.481 142.749 195.853 143.464 194.544 143.578C186.04 144.331 176.235 145.964 176.007 156.67C175.79 166.955 175.174 178.552 177.833 188.437C177.97 188.954 177.791 189.304 177.297 189.487C150.45 199.452 118.889 205.992 91.9737 192.683C72.6528 183.125 61.1889 166.86 57.5819 143.886C57.5134 143.491 57.2851 143.255 56.897 143.179C51.0072 142.09 47.1186 141.249 45.2314 140.656C-11.35 123.032 -15.3223 45.8475 35.9972 19.0007C60.2643 6.30778 84.9538 12.1976 110.522 14.3093C110.796 14.3321 110.952 14.4805 110.99 14.7545L115.088 45.0827C115.14 45.4532 115.041 45.8292 114.815 46.1287C114.588 46.4281 114.251 46.6266 113.878 46.6807L112.588 46.8633C111.515 47.0231 110.804 46.5894 110.454 45.5621C105.028 29.8482 94.6751 20.5682 79.3949 17.7222C59.6251 14.0354 42.7203 22.5163 31.6254 38.6906C11.7643 67.6719 17.3688 114.825 49.9114 133.453C51.9355 134.61 54.0586 135.474 56.2806 136.044C56.6992 136.151 56.9123 135.991 56.9199 135.565Z" fill="white"/>
<path opacity="0.4" d="M1642.79 111.696L1598.01 158.849C1597.96 158.904 1597.9 158.949 1597.83 158.98C1597.76 159.011 1597.69 159.028 1597.61 159.03C1597.53 159.032 1597.46 159.019 1597.39 158.992C1597.32 158.965 1597.25 158.924 1597.2 158.872L1595.54 157.263C1595.44 157.159 1595.37 157.017 1595.37 156.868C1595.37 156.719 1595.42 156.573 1595.52 156.464L1642.68 106.868C1642.73 106.814 1642.79 106.77 1642.86 106.74C1642.93 106.711 1643 106.695 1643.08 106.693C1643.15 106.692 1643.23 106.706 1643.3 106.734C1643.37 106.762 1643.43 106.804 1643.49 106.857L1667.23 130.61C1667.28 130.664 1667.34 130.706 1667.41 130.735C1667.48 130.764 1667.56 130.779 1667.63 130.779C1667.71 130.779 1667.78 130.764 1667.85 130.735C1667.92 130.706 1667.99 130.664 1668.04 130.61L1725.72 71.7458C1725.82 71.6397 1725.96 71.579 1726.11 71.5769C1726.26 71.5748 1726.41 71.6313 1726.51 71.7343L1770.12 113.1C1770.23 113.203 1770.37 113.26 1770.52 113.258C1770.67 113.256 1770.81 113.195 1770.92 113.089L1839.06 43.7005C1839.16 43.5928 1839.31 43.5301 1839.46 43.5258C1839.61 43.5215 1839.75 43.576 1839.86 43.6776L1841.55 45.2186C1841.61 45.2703 1841.65 45.3329 1841.68 45.4026C1841.72 45.4724 1841.73 45.5479 1841.74 45.6246C1841.74 45.7014 1841.72 45.7777 1841.7 45.8492C1841.67 45.9206 1841.63 45.9857 1841.57 46.0404L1771 117.849C1770.89 117.955 1770.75 118.015 1770.6 118.018C1770.45 118.02 1770.31 117.963 1770.2 117.86L1726.58 76.5398C1726.47 76.4368 1726.33 76.3802 1726.18 76.3824C1726.03 76.3845 1725.89 76.4451 1725.78 76.5512L1668.15 135.427C1668.1 135.48 1668.04 135.523 1667.97 135.552C1667.9 135.581 1667.82 135.596 1667.75 135.596C1667.67 135.596 1667.6 135.581 1667.53 135.552C1667.46 135.523 1667.4 135.48 1667.34 135.427L1643.6 111.685C1643.55 111.632 1643.48 111.591 1643.41 111.563C1643.34 111.535 1643.27 111.521 1643.19 111.522C1643.12 111.523 1643.04 111.539 1642.97 111.569C1642.9 111.599 1642.84 111.642 1642.79 111.696Z" fill="white"/>
<g opacity="0.4">
<path d="M355.868 75.5858V140.481H349.369V75.5858H355.868Z" fill="white"/>
<path d="M474.286 140.481H467.787L431.858 85.891V140.481H425.36V75.5858H431.858L467.787 130.083V75.5858H474.286V140.481Z" fill="white"/>
<path d="M581.752 75.5858V80.9705H563.741V140.481H557.242V80.9705H539.139V75.5858H581.752Z" fill="white"/>
<path d="M653.287 80.8777V105.109H677.89V110.493H653.287V135.096H680.675V140.481H646.789V75.493H680.675V80.8777H653.287Z" fill="white"/>
<path d="M754.754 135.189H778.057V140.481H748.255V75.5858H754.754V135.189Z" fill="white"/>
<path d="M848.605 135.189H871.908V140.481H842.107V75.5858H848.605V135.189Z" fill="white"/>
<path d="M942.457 75.5858V140.481H935.958V75.5858H942.457Z" fill="white"/>
<path d="M1063.01 94.5251C1061.15 90.2545 1058.31 86.9122 1054.47 84.4984C1050.69 82.0227 1046.24 80.7849 1041.1 80.7849C1036.27 80.7849 1031.94 81.8989 1028.1 84.1271C1024.26 86.3552 1021.23 89.5427 1019 93.6895C1016.78 97.7744 1015.66 102.54 1015.66 107.987C1015.66 113.433 1016.78 118.23 1019 122.377C1021.23 126.524 1024.26 129.711 1028.1 131.939C1031.94 134.167 1036.27 135.282 1041.1 135.282C1045.62 135.282 1049.67 134.322 1053.26 132.403C1056.91 130.423 1059.82 127.638 1061.99 124.048C1064.22 120.396 1065.49 116.157 1065.8 111.329H1038.5V106.037H1072.67V110.772C1072.36 116.466 1070.81 121.634 1068.02 126.276C1065.24 130.856 1061.49 134.477 1056.79 137.138C1052.15 139.8 1046.92 141.13 1041.1 141.13C1035.1 141.13 1029.65 139.738 1024.76 136.953C1019.87 134.106 1016 130.175 1013.16 125.162C1010.37 120.087 1008.98 114.362 1008.98 107.987C1008.98 101.612 1010.37 95.9177 1013.16 90.9043C1016 85.8291 1019.87 81.8989 1024.76 79.1137C1029.65 76.2667 1035.1 74.8431 1041.1 74.8431C1048.03 74.8431 1054.1 76.5761 1059.3 80.0421C1064.5 83.5081 1068.27 88.3358 1070.62 94.5251H1063.01Z" fill="white"/>
<path d="M1145.84 80.8777V105.109H1170.45V110.493H1145.84V135.096H1173.23V140.481H1139.34V75.493H1173.23V80.8777H1145.84Z" fill="white"/>
<path d="M1289.74 140.481H1283.24L1247.31 85.891V140.481H1240.81V75.5858H1247.31L1283.24 130.083V75.5858H1289.74V140.481Z" fill="white"/>
<path d="M1356.26 107.987C1356.26 101.612 1357.65 95.9177 1360.44 90.9043C1363.22 85.8291 1367.03 81.8989 1371.86 79.1137C1376.69 76.2667 1382.07 74.8431 1388.01 74.8431C1395.25 74.8431 1401.44 76.5761 1406.58 80.0421C1411.78 83.4462 1415.56 88.2739 1417.91 94.5251H1410.29C1408.44 90.1307 1405.59 86.6956 1401.75 84.2199C1397.98 81.7442 1393.4 80.5063 1388.01 80.5063C1383.25 80.5063 1378.95 81.6204 1375.11 83.8486C1371.33 86.0767 1368.36 89.2951 1366.2 93.5038C1364.03 97.6507 1362.95 102.478 1362.95 107.987C1362.95 113.495 1364.03 118.323 1366.2 122.47C1368.36 126.617 1371.33 129.804 1375.11 132.032C1378.95 134.26 1383.25 135.374 1388.01 135.374C1393.4 135.374 1397.98 134.167 1401.75 131.754C1405.59 129.278 1408.44 125.874 1410.29 121.541H1417.91C1415.56 127.731 1411.78 132.527 1406.58 135.931C1401.38 139.335 1395.19 141.038 1388.01 141.038C1382.07 141.038 1376.69 139.645 1371.86 136.86C1367.03 134.013 1363.22 130.083 1360.44 125.069C1357.65 120.056 1356.26 114.362 1356.26 107.987Z" fill="white"/>
<path d="M1492.13 80.8777V105.109H1516.73V110.493H1492.13V135.096H1519.52V140.481H1485.63V75.493H1519.52V80.8777H1492.13Z" fill="white"/>
</g>
</svg>
